<svg width="60" height="60" viewBox="0 0 60 60" fill="none" xmlns="http://www.w3.org/2000/svg">
<g id="devicon:facebook">
<rect width="59.0125" height="59.0125" rx="14.163" fill="#3D5A98"/>
<path id="Vector" d="M53.7807 2.22681H5.23834C3.57566 2.22681 2.22778 3.57468 2.22778 5.23736V53.7797C2.22778 55.4424 3.57566 56.7903 5.23834 56.7903H53.7807C55.4434 56.7903 56.7913 55.4424 56.7913 53.7797V5.23736C56.7913 3.57468 55.4434 2.22681 53.7807 2.22681Z" fill="#3D5A98"/>
<path id="Vector_2" d="M39.8709 56.7856V35.6564H46.9616L48.022 27.4223H39.8709V22.1665C39.8709 19.7829 40.5348 18.1555 43.9511 18.1555H48.3124V10.7789C46.2005 10.5588 44.0781 10.4542 41.9548 10.4654C35.6755 10.4654 31.351 14.292 31.351 21.3505V27.4223H24.2603V35.6564H31.351V56.7856H39.8709Z" fill="white"/>
</g>
</svg>
