<svg width="60" height="60" viewBox="0 0 60 60" fill="none" xmlns="http://www.w3.org/2000/svg">
<g id="skill-icons:instagram" clip-path="url(#clip0_365_3057)">
<g id="Group">
<path id="Vector" d="M46.0725 0H14.7222C7.08348 0 0.891113 6.19237 0.891113 13.831V45.1814C0.891113 52.8201 7.08348 59.0125 14.7222 59.0125H46.0725C53.7112 59.0125 59.9036 52.8201 59.9036 45.1814V13.831C59.9036 6.19237 53.7112 0 46.0725 0Z" fill="url(#paint0_radial_365_3057)"/>
<path id="Vector_2" d="M46.0725 0H14.7222C7.08348 0 0.891113 6.19237 0.891113 13.831V45.1814C0.891113 52.8201 7.08348 59.0125 14.7222 59.0125H46.0725C53.7112 59.0125 59.9036 52.8201 59.9036 45.1814V13.831C59.9036 6.19237 53.7112 0 46.0725 0Z" fill="url(#paint1_radial_365_3057)"/>
<path id="Vector_3" d="M30.4 6.45459C24.1396 6.45459 23.3538 6.48202 20.8951 6.59382C18.441 6.70631 16.7658 7.09474 15.3002 7.66481C13.7839 8.25355 12.4978 9.04123 11.2166 10.3229C9.93421 11.6043 9.14653 12.8904 8.55595 14.4061C7.98426 15.8722 7.59538 17.548 7.48496 20.0009C7.37501 22.4599 7.34619 23.2459 7.34619 29.5066C7.34619 35.7672 7.37385 36.5505 7.48542 39.0092C7.59838 41.4633 7.9868 43.1384 8.55641 44.6041C9.14561 46.1204 9.93329 47.4065 11.215 48.6877C12.496 49.9701 13.782 50.7596 15.2972 51.3483C16.764 51.9184 18.4394 52.3068 20.893 52.4193C23.3519 52.5311 24.1371 52.5585 30.3972 52.5585C36.6583 52.5585 37.4416 52.5311 39.9003 52.4193C42.3544 52.3068 44.0314 51.9184 45.4982 51.3483C47.0139 50.7596 48.2981 49.9701 49.5788 48.6877C50.8612 47.4065 51.6487 46.1204 52.2395 44.6048C52.8061 43.1384 53.1952 41.4628 53.3105 39.0096C53.4209 36.5509 53.4497 35.7672 53.4497 29.5066C53.4497 23.2459 53.4209 22.4603 53.3105 20.0014C53.1952 17.5473 52.8061 15.8724 52.2395 14.4068C51.6487 12.8904 50.8612 11.6043 49.5788 10.3229C48.2967 9.04076 47.0143 8.25309 45.4968 7.66504C44.0273 7.09474 42.3512 6.70608 39.8971 6.59382C37.4382 6.48202 36.6553 6.45459 30.3929 6.45459H30.4ZM28.332 10.6087C28.9459 10.6078 29.6308 10.6087 30.4 10.6087C36.5551 10.6087 37.2844 10.6309 39.715 10.7413C41.9625 10.8441 43.1824 11.2196 43.995 11.5352C45.0708 11.9529 45.8378 12.4524 46.6441 13.2595C47.4509 14.0663 47.9502 14.8346 48.3691 15.9104C48.6847 16.7218 49.0606 17.9417 49.163 20.1893C49.2734 22.6194 49.2974 23.3492 49.2974 29.5013C49.2974 35.6533 49.2734 36.3834 49.163 38.8132C49.0602 41.0608 48.6847 42.2807 48.3691 43.0923C47.9514 44.1682 47.4509 44.9342 46.6441 45.7405C45.8373 46.5473 45.0713 47.0466 43.995 47.4646C43.1834 47.7815 41.9625 48.1561 39.715 48.2589C37.2849 48.3694 36.5551 48.3933 30.4 48.3933C24.2447 48.3933 23.5151 48.3694 21.0853 48.2589C18.8377 48.1552 17.6178 47.7797 16.8046 47.4641C15.729 47.0462 14.9604 46.5469 14.1536 45.7401C13.3468 44.9333 12.8475 44.1668 12.4286 43.0905C12.1131 42.2788 11.7371 41.0589 11.6347 38.8114C11.5243 36.3813 11.5022 35.6515 11.5022 29.4955C11.5022 23.3398 11.5243 22.6136 11.6347 20.1835C11.7375 17.936 12.1131 16.7161 12.4286 15.9035C12.8466 14.8277 13.3468 14.0594 14.1538 13.2526C14.9606 12.4457 15.729 11.9462 16.8048 11.5276C17.6174 11.2106 18.8377 10.836 21.0853 10.7328C23.2118 10.6366 24.0359 10.6078 28.332 10.603V10.6087ZM42.705 14.4363C41.1779 14.4363 39.9388 15.6741 39.9388 17.2015C39.9388 18.7287 41.1779 19.9678 42.705 19.9678C44.2322 19.9678 45.4712 18.7287 45.4712 17.2015C45.4712 15.6744 44.2322 14.4353 42.705 14.4353V14.4363ZM30.4 17.6683C23.8625 17.6683 18.562 22.9689 18.562 29.5066C18.562 36.0443 23.8625 41.3423 30.4 41.3423C36.9377 41.3423 42.2364 36.0443 42.2364 29.5066C42.2364 22.9691 36.9373 17.6683 30.3996 17.6683H30.4ZM30.4 21.8225C34.6436 21.8225 38.0841 25.2625 38.0841 29.5066C38.0841 33.7502 34.6436 37.1906 30.4 37.1906C26.1562 37.1906 22.7162 33.7502 22.7162 29.5066C22.7162 25.2625 26.1562 21.8225 30.4 21.8225Z" fill="white"/>
</g>
</g>
<defs>
<radialGradient id="paint0_radial_365_3057" cx="0" cy="0" r="1" gradientUnits="userSpaceOnUse" gradientTransform="translate(16.5663 63.5576) rotate(-90) scale(58.4857 54.3964)">
<stop stop-color="#FFDD55"/>
<stop offset="0.1" stop-color="#FFDD55"/>
<stop offset="0.5" stop-color="#FF543E"/>
<stop offset="1" stop-color="#C837AB"/>
</radialGradient>
<radialGradient id="paint1_radial_365_3057" cx="0" cy="0" r="1" gradientUnits="userSpaceOnUse" gradientTransform="translate(-8.99371 4.25097) rotate(78.681) scale(26.1434 107.764)">
<stop stop-color="#3771C8"/>
<stop offset="0.128" stop-color="#3771C8"/>
<stop offset="1" stop-color="#6600FF" stop-opacity="0"/>
</radialGradient>
<clipPath id="clip0_365_3057">
<rect width="59.0125" height="59.0125" fill="white" transform="translate(0.891602)"/>
</clipPath>
</defs>
</svg>
