<svg width="60" height="60" viewBox="0 0 60 60" fill="none" xmlns="http://www.w3.org/2000/svg">
<g id="logos:telegram">
<g clip-path="url(#clip0_365_3054)">
<rect x="0.945801" width="59.0125" height="59.0125" rx="14.163" fill="#2AACEF"/>
<path id="Vector" d="M30.4513 0C22.6275 0 15.1173 3.1106 9.58947 8.6421C4.05596 14.1758 0.946601 21.6805 0.945068 29.5062C0.945068 37.3286 4.05705 44.8389 9.58947 50.3704C15.1173 55.9019 22.6275 59.0125 30.4513 59.0125C38.2751 59.0125 45.7853 55.9019 51.3131 50.3704C56.8456 44.8389 59.9575 37.3286 59.9575 29.5062C59.9575 21.6839 56.8456 14.1736 51.3131 8.6421C45.7853 3.1106 38.2751 0 30.4513 0Z" fill="url(#paint0_linear_365_3054)"/>
<path id="Vector_2" d="M14.3011 29.1947C22.904 25.4474 28.6392 22.9767 31.5069 21.7831C39.7041 18.3746 41.4053 17.7827 42.5164 17.7626C42.7607 17.7587 43.3048 17.8191 43.6598 18.1061C43.9548 18.3481 44.0378 18.6755 44.0793 18.9053C44.1162 19.1349 44.1669 19.6582 44.1254 20.0666C43.6828 24.7323 41.7603 36.0544 40.7829 41.2802C40.3726 43.4914 39.5566 44.2327 38.7682 44.3051C37.0531 44.4628 35.753 43.1728 34.0933 42.0852C31.4977 40.3826 30.0316 39.3232 27.5097 37.662C24.596 35.7423 26.4862 34.687 28.1459 32.9627C28.5793 32.5114 36.1311 25.6442 36.274 25.0214C36.2924 24.9435 36.3109 24.653 36.1357 24.5C35.9651 24.3464 35.7115 24.399 35.5271 24.4405C35.2643 24.4995 31.1196 27.2417 23.0792 32.6667C21.9035 33.4754 20.8385 33.8696 19.8796 33.8488C18.8284 33.8262 16.7999 33.2532 15.2923 32.7635C13.4481 32.1628 11.9774 31.8452 12.1065 30.8249C12.1711 30.2938 12.9041 29.7502 14.3011 29.1947Z" fill="white"/>
</g>
</g>
<defs>
<linearGradient id="paint0_linear_365_3054" x1="2951.57" y1="0" x2="2951.57" y2="5901.25" gradientUnits="userSpaceOnUse">
<stop stop-color="#2AABEE"/>
<stop offset="1" stop-color="#229ED9"/>
</linearGradient>
<clipPath id="clip0_365_3054">
<rect x="0.945801" width="59.0125" height="59.0125" rx="14.163" fill="white"/>
</clipPath>
</defs>
</svg>
